HIERARCHY
ROOT Hips
{
	OFFSET 0.000000 0.000000 0.000000 
	CHANNELS 6 Xposition Yposition Zposition Zrotation Yrotation Xrotation
	JOINT LeftUpLeg
	{
		OFFSET 1.363060 -1.794630 0.839290 
		CHANNELS 3 Zrotation Yrotation Xrotation
		JOINT LeftLeg
		{
			OFFSET 2.448110 -6.726130 0.000000 
			CHANNELS 3 Zrotation Yrotation Xrotation
			JOINT LeftFoot
			{
				OFFSET 2.562200 -7.039590 0.000000 
				CHANNELS 3 Zrotation Yrotation Xrotation
				JOINT LeftToeBase
				{
					OFFSET 0.157640 -0.433110 2.322550 
					CHANNELS 3 Zrotation Yrotation Xrotation
					End Site
					{
						OFFSET 0.000000 0.000000 0.000000 
					}
				}
			}
		}
	}
	JOINT RightUpLeg
	{
		OFFSET -1.305520 -1.794630 0.839290 
		CHANNELS 3 Zrotation Yrotation Xrotation
		JOINT RightLeg
		{
			OFFSET -2.542530 -6.985550 0.000000 
			CHANNELS 3 Zrotation Yrotation Xrotation
			JOINT RightFoot
			{
				OFFSET -2.568260 -7.056230 0.000000 
				CHANNELS 3 Zrotation Yrotation Xrotation
				JOINT RightToeBase
				{
					OFFSET -0.164730 -0.452590 2.363150 
					CHANNELS 3 Zrotation Yrotation Xrotation
					End Site
					{
						OFFSET 0.000000 0.000000 0.000000 
					}
				}
			}
		}
	}
	JOINT Spine
	{
		OFFSET 0.028270 2.035590 -0.193380 
		CHANNELS 3 Zrotation Yrotation Xrotation
		JOINT Spine1
		{
			OFFSET 0.056720 2.048850 -0.042750 
			CHANNELS 3 Zrotation Yrotation Xrotation
			JOINT Neck1
			{
				OFFSET -0.054170 1.746240 0.172020 
				CHANNELS 3 Zrotation Yrotation Xrotation
				JOINT Head
				{
					OFFSET 0.104070 1.761360 -0.123970 
					CHANNELS 3 Zrotation Yrotation Xrotation
					End Site
					{
						OFFSET 0.000000 0.000000 0.000000 
					}
				}
			}
			JOINT LeftArm
			{
				OFFSET 3.362410 1.200890 -0.311210 
				CHANNELS 3 Zrotation Yrotation Xrotation
				JOINT LeftForeArm
				{
					OFFSET 4.983000 -0.000000 -0.000000 
					CHANNELS 3 Zrotation Yrotation Xrotation
					JOINT LeftHand
					{
						OFFSET 3.483560 -0.000000 -0.000000 
						CHANNELS 3 Zrotation Yrotation Xrotation
						JOINT LeftHandIndex1
						{
							OFFSET 0.715260 -0.000000 -0.000000 
							CHANNELS 3 Zrotation Yrotation Xrotation
							End Site
							{
								OFFSET 0.000000 0.000000 0.000000 
							}
						}
					}
				}
			}
			JOINT RightArm
			{
				OFFSET -3.136600 1.374050 -0.404650 
				CHANNELS 3 Zrotation Yrotation Xrotation
				JOINT RightForeArm
				{
					OFFSET -5.241900 -0.000000 -0.000000 
					CHANNELS 3 Zrotation Yrotation Xrotation
					JOINT RightHand
					{
						OFFSET -3.444170 -0.000000 -0.000000 
						CHANNELS 3 Zrotation Yrotation Xrotation
						JOINT RightHandIndex1
						{
							OFFSET -0.622530 -0.000000 -0.000000 
							CHANNELS 3 Zrotation Yrotation Xrotation
							End Site
							{
								OFFSET 0.000000 0.000000 0.000000 
							}
						}
					}
				}
			}
		}
	}
}
MOTION
Frames: 15
Frame Time: 0.041667
0.856182 17.789924 -15.870136 -6.822550 3.823879 3.170159 -10.180741 -6.547450 -22.898573 7.705299 16.598301 53.249140 0.948905 -4.016705 -7.178532 0.100600 2.045500 5.631400 35.876181 3.046541 -4.374854 -1.343927 -7.423224 21.567323 -0.185795 -2.287817 -11.536183 -0.511600 -4.584600 12.727400 1.990142 -0.071781 -1.750829 2.865445 -0.352481 -0.675499 4.261629 -0.025723 12.589098 0.721400 0.046100 8.341600 -89.724232 6.567806 27.401855 24.868572 -36.981339 -8.295519 0.425601 -0.133572 1.866572 -7.125000 0.000000 0.000000 84.395543 1.638003 -13.424259 -7.518139 13.903157 -0.678157 0.903654 0.225964 3.715213 7.125000 0.000000 0.000000 
0.862702 17.775253 -15.774065 -6.418663 3.612392 3.257562 -10.716700 -6.880973 -23.583652 7.440680 16.456282 52.393815 0.882823 -3.361996 -7.560652 0.060300 1.584000 4.357200 35.523769 3.506801 -3.898028 -1.348996 -7.435493 21.626333 -0.174764 -2.552445 -11.934671 -0.502200 -4.543000 12.609600 1.982534 -0.102036 -1.654027 3.126086 -0.373790 -0.256296 3.939475 -0.125319 12.707439 0.571900 -0.033100 8.587800 -90.086944 5.836120 27.179942 24.875594 -37.007054 -8.298784 0.425670 -0.136443 2.233904 -7.125000 0.000000 0.000000 84.253671 2.406733 -12.893065 -7.634272 14.119394 -0.694935 0.924886 0.232377 3.624310 7.125000 0.000000 0.000000 
0.863212 17.765779 -15.671474 -6.866341 3.506939 3.144897 -10.196156 -7.154815 -24.132413 7.228635 16.308304 51.624421 0.974460 -3.748110 -8.053006 0.128700 2.312800 6.371100 36.118798 3.536643 -3.326491 -1.322643 -7.391171 21.509590 -0.144116 -2.826755 -12.055968 -0.445200 -4.280900 11.868200 1.963905 -0.058004 -1.770966 2.810740 -0.346634 -0.726937 4.506977 -0.195524 12.810189 0.861500 -0.021800 8.520300 -89.825684 6.101236 27.338325 25.033014 -37.138477 -8.392819 0.424973 -0.135437 1.978665 -7.125000 0.000000 0.000000 84.532710 1.994717 -12.454967 -7.794301 14.439592 -0.752215 0.914572 0.222054 3.018880 7.125000 0.000000 0.000000 
0.858831 17.750293 -15.573569 -6.572544 3.609452 3.065536 -10.594284 -7.574239 -24.556955 6.955997 16.138547 50.718863 0.903521 -3.129638 -8.304828 0.075500 1.772400 4.877100 35.889921 3.379018 -2.790190 -1.310928 -7.352623 21.427028 -0.154253 -2.927680 -12.433399 -0.444000 -4.275500 11.853100 1.868968 0.021213 -1.775471 2.720430 -0.303154 -0.705933 4.466960 -0.416866 12.818036 0.748100 -0.102600 8.515100 -89.379310 6.260918 28.191848 25.546959 -37.658828 -8.704235 0.424111 -0.128570 1.903444 -7.125000 0.000000 0.000000 84.781051 2.040736 -11.877074 -7.947074 14.722242 -0.785985 0.929234 0.236228 2.239629 7.125000 0.000000 0.000000 
0.863925 17.745913 -15.478925 -6.447925 3.682544 2.975966 -10.800578 -8.036381 -25.074739 6.685940 15.961582 49.796248 0.880820 -2.787748 -8.700106 0.027000 1.061500 2.917900 35.763934 3.085139 -2.309500 -1.285814 -7.269966 21.217023 -0.183138 -2.833719 -12.672459 -0.514100 -4.595800 12.759200 1.859521 -0.090273 -1.857353 2.739156 -0.355777 -1.099611 4.336288 -0.122610 12.942929 0.769200 0.009300 8.505600 -89.439507 6.547191 28.374210 25.999857 -38.096554 -8.997996 0.420930 -0.127132 1.801790 -7.125000 0.000000 0.000000 84.709300 1.850867 -11.220054 -8.134128 15.054464 -0.853425 0.902542 0.272986 1.772963 7.125000 0.000000 0.000000 
0.857099 17.728491 -15.389374 -6.939969 4.131006 3.026641 -10.199125 -8.629620 -25.771379 6.421580 15.779405 48.855793 0.878727 -2.608089 -9.000371 0.041000 1.306400 3.592300 36.492197 3.051348 -2.042391 -1.255149 -7.245179 21.132256 -0.106529 -3.473061 -12.893277 -0.423300 -4.175900 11.572000 1.918825 -0.358930 -1.831378 2.633295 -0.490893 -0.898382 4.277840 -0.015474 13.081316 0.710000 0.072800 8.723800 -89.531800 6.068105 28.042067 25.948535 -38.052334 -8.968357 0.422219 -0.131392 1.775629 -7.125000 0.000000 0.000000 84.872569 2.442201 -10.742661 -8.196230 15.180228 -0.864343 0.922998 0.242051 1.201419 7.125000 0.000000 0.000000 
0.849153 17.717489 -15.295035 -6.707333 4.121759 3.124800 -10.394844 -9.036239 -26.382302 6.109495 15.548311 47.745452 0.874983 -2.521057 -9.089815 0.007500 0.559600 1.537800 36.406675 3.383091 -1.520057 -1.211653 -7.144090 20.855133 -0.062085 -3.936071 -13.232992 -0.485800 -4.469200 12.400700 1.909778 -0.337245 -1.897874 2.867343 -0.476714 -1.100302 4.473323 -0.123477 13.083882 0.829000 0.023700 8.585400 -89.553836 5.959726 28.357510 25.905579 -38.015253 -8.956174 0.420043 -0.131711 2.296213 -7.125000 0.000000 0.000000 84.803639 2.240013 -10.350035 -8.375076 15.509680 -0.918829 0.920282 0.256564 0.838667 7.125000 0.000000 0.000000 
0.862702 17.704958 -15.199066 -6.709364 3.948701 3.161011 -10.543091 -9.310875 -26.837398 5.802643 15.316913 46.663514 0.801927 -1.933044 -9.329692 0.001500 0.248800 0.683500 36.314653 2.915198 -1.149000 -1.176913 -7.015940 20.500937 -0.120114 -3.433409 -13.014377 -0.444100 -4.275900 11.854300 1.844741 -0.208289 -1.842470 2.584791 -0.410742 -0.822279 4.033431 -0.329672 13.201561 0.510900 -0.073400 8.848700 -89.134266 5.683822 29.104809 26.326533 -38.426846 -9.207990 0.422610 -0.124352 2.017983 -7.125000 0.000000 0.000000 85.044318 2.651323 -10.183097 -8.485905 15.737589 -0.950185 0.930026 0.253991 0.553608 7.125000 0.000000 0.000000 
0.863110 17.713006 -15.102282 -6.606407 4.060987 3.221238 -10.649364 -9.722820 -27.357711 5.462544 15.037149 45.413899 0.789288 -1.787783 -9.430748 0.000500 0.138400 0.380300 36.292957 2.906859 -0.602214 -1.124756 -6.880411 20.126585 -0.099137 -3.700348 -13.275590 -0.534900 -4.686200 13.015600 1.823525 -0.212462 -1.922355 2.641048 -0.403003 -1.134356 4.459674 -0.484063 12.313095 0.705600 -0.137600 8.205800 -89.114037 5.768106 29.327281 26.235977 -38.344499 -9.176415 0.421633 -0.125808 2.026664 -7.125000 0.000000 0.000000 85.096605 2.102222 -9.348109 -8.787956 16.297335 -1.050581 0.921817 0.286325 -0.322908 7.125000 0.000000 0.000000 
0.850884 17.698845 -15.009573 -7.053894 4.272871 3.021708 -10.114832 -10.150413 -27.643535 5.123351 14.716638 44.088661 0.764469 -1.871847 -8.713508 0.003000 -0.354100 -0.972900 36.991976 2.807555 0.149048 -1.053373 -6.725201 19.679989 -0.020669 -4.227880 -13.275185 -0.450800 -4.307600 11.943600 1.871085 -0.378683 -1.946566 2.588711 -0.489041 -1.296862 4.414432 -0.581979 12.331360 0.635600 -0.174400 8.324300 -89.078452 5.727554 29.317640 26.400808 -38.476692 -9.246898 0.419101 -0.123860 1.975669 -7.125000 0.000000 0.000000 85.193990 2.360191 -9.189204 -8.780350 16.259213 -1.036001 0.936897 0.267132 -0.142950 7.125000 0.000000 0.000000 
0.861989 17.709440 -14.901990 -6.826032 4.136110 3.165013 -10.398033 -10.271884 -27.871741 4.791197 14.380727 42.753606 0.869135 -2.598905 -8.470593 0.031000 1.135700 3.122100 36.676673 2.549928 0.680437 -0.987029 -6.510357 19.081306 -0.035515 -4.102978 -13.224104 -0.485800 -4.469400 12.401300 1.815240 -0.337950 -1.951697 2.554829 -0.466111 -1.203768 4.746479 -0.464069 12.269679 0.859400 -0.111400 8.260100 -89.041151 5.708497 29.501590 26.559088 -38.633697 -9.349481 0.419812 -0.124780 2.219687 -7.125000 0.000000 0.000000 85.215499 2.203111 -8.056815 -9.060945 16.779407 -1.129474 0.932367 0.312512 -1.313941 7.125000 0.000000 0.000000 
0.874520 17.698234 -14.796445 -6.558501 4.221614 3.103619 -10.869440 -10.660290 -28.168915 4.421999 14.027182 41.337526 0.712561 -1.852276 -7.734027 0.010400 -0.659200 -1.811600 36.369876 2.162172 1.487163 -0.908802 -6.255953 18.377958 -0.008279 -4.171208 -12.979530 -0.494900 -4.510400 12.517100 1.764350 -0.449201 -1.920609 2.469711 -0.519091 -1.089528 4.536038 -0.441957 12.394024 0.742000 -0.106300 8.285400 -89.065837 5.524574 29.603200 26.585910 -38.669572 -9.375141 0.421187 -0.127359 1.988931 -7.125000 0.000000 0.000000 85.303588 2.585058 -8.305365 -9.038618 16.756564 -1.118412 0.943708 0.291938 -0.976317 7.125000 0.000000 0.000000 
0.866370 17.698030 -14.704856 -6.767763 3.975417 3.234208 -10.519880 -10.750665 -28.701499 4.080422 13.660484 39.920117 0.713257 -1.911149 -7.445794 0.003000 -0.355200 -0.975900 36.721370 2.346018 2.151135 -0.819411 -6.008445 17.672743 0.045832 -4.511733 -12.934473 -0.540900 -4.712000 13.088900 1.780961 -0.214322 -1.962482 2.575138 -0.400886 -1.198103 4.292239 -0.874024 12.423614 0.509900 -0.305900 8.390300 -88.947698 5.339260 29.848145 26.425319 -38.481275 -9.221211 0.417152 -0.117666 2.587322 -7.125000 0.000000 0.000000 85.266702 2.337608 -7.323830 -9.198255 17.009821 -1.148812 0.969394 0.294777 -1.967695 7.125000 0.000000 0.000000 
0.873094 17.701698 -14.601552 -6.846346 3.990857 3.176951 -10.450833 -10.993838 -28.693030 3.760348 13.280536 38.541255 0.695527 -2.012845 -6.684820 0.003600 0.389300 1.069500 36.905586 2.426054 3.258349 -0.697569 -5.648067 16.659820 0.111772 -4.979204 -13.014894 -0.535500 -4.688900 13.023300 1.736162 -0.232145 -1.981166 2.375969 -0.410515 -1.265485 4.831939 -0.538678 12.452142 0.858700 -0.121300 8.313400 -88.790997 5.447875 30.131451 26.557013 -38.635658 -9.365587 0.420989 -0.126123 2.190480 -7.125000 0.000000 0.000000 85.408776 2.340875 -7.406849 -9.259239 17.155770 -1.177646 0.969671 0.274394 -2.040832 7.125000 0.000000 0.000000 
0.878799 17.689778 -14.499165 -6.998591 3.959398 3.264681 -10.251673 -11.283827 -29.102244 3.430885 12.876628 37.072911 0.705621 -2.295682 -5.844400 0.005400 0.474400 1.303500 37.015770 1.796033 3.927891 -0.596314 -5.289868 15.652747 0.130034 -4.865352 -12.481744 -0.491200 -4.493700 12.469800 1.769952 -0.212455 -1.957116 2.451852 -0.399518 -1.085396 4.407076 -0.750776 12.548868 0.564400 -0.229400 8.454800 -88.825869 5.136832 30.172858 26.408651 -38.503776 -9.274215 0.421685 -0.124712 2.287548 -7.125000 0.000000 0.000000 85.416380 2.529369 -7.190934 -9.377550 17.360550 -1.195582 0.995575 0.275029 -2.214786 7.125000 0.000000 0.000000 
